<?xml version="1.0" encoding="UTF-8"?>
<svg id="Layer_2" data-name="Layer 2" xmlns="http://www.w3.org/2000/svg" viewBox="0 0 212.59 59.28">
  <defs>
    <style>
      .cls-1 {
        letter-spacing: 0em;
      }

      .cls-2 {
        letter-spacing: 0em;
      }

      .cls-3 {
        letter-spacing: -.03em;
      }

      .cls-4 {
        fill: #000;
        font-family: NIVEABrandTypeTT-Medium, 'NIVEA Brand Type TT';
        font-size: 12.54px;
        font-weight: 500;
      }

      .cls-5 {
        letter-spacing: -.01em;
      }

      .cls-6 {
        letter-spacing: -.02em;
      }

      .cls-7 {
        letter-spacing: -.02em;
      }

      .cls-8 {
        letter-spacing: -.03em;
      }

      .cls-9 {
        fill: #fff;
        opacity: .66;
        stroke-width: 0px;
      }

      .cls-10 {
        letter-spacing: 0em;
      }

      .cls-11 {
        letter-spacing: 0em;
      }

      .cls-12 {
        letter-spacing: -.01em;
      }

      .cls-13 {
        letter-spacing: -.03em;
      }

      .cls-14 {
        letter-spacing: 0em;
      }

      .cls-15 {
        letter-spacing: -.03em;
      }

      .cls-16 {
        letter-spacing: -.03em;
      }

      .cls-17 {
        letter-spacing: -.01em;
      }

      .cls-18 {
        letter-spacing: -.01em;
      }

      .cls-19 {
        letter-spacing: -.03em;
      }

      .cls-20 {
        letter-spacing: 0em;
      }
    </style>
  </defs>
  <g id="Layer_1-2" data-name="Layer 1">
    <g>
      <path class="cls-9" d="M195.44,0H6.45C2.89,0,0,2.89,0,6.45v27.18c0,6.05,3.14,11.35,7.86,14.4l1.72,8.12c.45,2.14,2.55,3.51,4.69,3.05l2.31-.49c4.35-.92,7.65-4.03,9.04-7.93h177.46c5.25,0,9.51-4.26,9.51-9.51v-24.11c0-9.47-7.68-17.15-17.15-17.15Z"/>
      <text class="cls-4" transform="translate(21.91 21.37)"><tspan x="0" y="0">Did</tspan><tspan class="cls-7" x="19.84" y="0"> </tspan><tspan class="cls-3" x="22.49" y="0">y</tspan><tspan class="cls-14" x="29.39" y="0">ou </tspan><tspan class="cls-20" x="47.35" y="0">k</tspan><tspan x="53.95" y="0">n</tspan><tspan class="cls-8" x="61.44" y="0">o</tspan><tspan class="cls-6" x="68.62" y="0">w</tspan><tspan class="cls-17" x="78.92" y="0"> </tspan><tspan x="81.67" y="0">the</tspan><tspan class="cls-19" x="101.21" y="0">r</tspan><tspan x="105.66" y="0">e a</tspan><tspan class="cls-15" x="123.42" y="0">r</tspan><tspan x="127.87" y="0">e</tspan><tspan class="cls-18" x="134.95" y="0"> </tspan><tspan class="cls-2" x="137.7" y="0">t</tspan><tspan class="cls-8" x="142.68" y="0">w</tspan><tspan x="152.92" y="0">o </tspan><tspan x="0" y="15.04">t</tspan><tspan class="cls-16" x="4.98" y="15.04">y</tspan><tspan class="cls-10" x="11.95" y="15.04">p</tspan><tspan class="cls-11" x="19.69" y="15.04">e</tspan><tspan x="26.75" y="15.04">s </tspan><tspan class="cls-12" x="35.76" y="15.04">o</tspan><tspan class="cls-13" x="43.12" y="15.04">f</tspan><tspan x="47.48" y="15.04" xml:space="preserve">  </tspan><tspan class="cls-1" x="53.33" y="15.04">s</tspan><tspan class="cls-8" x="59.3" y="15.04">w</tspan><tspan x="69.54" y="15.04">eat gland</tspan><tspan class="cls-5" x="125.95" y="15.04">s</tspan><tspan x="131.89" y="15.04">?</tspan></text>
    </g>
  </g>
</svg>